<svg xmlns="http://www.w3.org/2000/svg" width="22" height="22" viewBox="0 0 22 22">
  <defs>
    <style>
      .cls-1 {
        fill: #c1c5cc;
      }

      .cls-2 {
        fill: none;
      }
    </style>
  </defs>
  <g id="组_23856" data-name="组 23856" transform="translate(-642 -239)">
    <g id="组_23819" data-name="组 23819" transform="translate(1403.143 -129.186)">
      <path id="路径_18813" data-name="路径 18813" class="cls-1" d="M-754.055,383.312h1.079V373.057H-757.4l-2.746,2.688v5.149c0,4.014,0,4.014.8,4.014h4.522v0h14.3l0-1.6h-13.534Zm-4.489-6.895,1.8-1.762h2.087v8.656h-3.886Z" transform="translate(0 -0.08)"/>
      <path id="路径_18814" data-name="路径 18814" class="cls-1" d="M-754.751,385.906h-1.6a1.791,1.791,0,0,0,1.787,1.787,1.789,1.789,0,0,0,1.787-1.787h-1.6C-754.372,386.114-754.751,386.114-754.751,385.906Z" transform="translate(-0.202 -0.764)"/>
      <path id="路径_18815" data-name="路径 18815" class="cls-1" d="M-744.1,385.906h-1.6a1.79,1.79,0,0,0,1.786,1.787,1.789,1.789,0,0,0,1.788-1.787h-1.6C-743.717,386.114-744.1,386.114-744.1,385.906Z" transform="translate(-0.769 -0.764)"/>
      <path id="路径_18816" data-name="路径 18816" class="cls-1" d="M-741.655,382.92l.634-1.557h0l2.291-5.632-1.557-.634h0l-7.163-2.915h0l-1.557-.633-.633,1.557h0l-1.975,4.852h0l-.317.779Zm.734-6.265-1.657,4.073-7.162-2.914,1.658-4.074Z" transform="translate(-0.437)"/>
    </g>
    <rect id="矩形_9129" data-name="矩形 9129" class="cls-2" width="22" height="22" transform="translate(642 239)"/>
  </g>
</svg>
