<svg xmlns="http://www.w3.org/2000/svg" width="124" height="6" viewBox="0 0 124 6">
  <defs>
    <style>
      .cls-1 {
        fill: #c5cdd4;
      }
    </style>
  </defs>
  <g id="组_23852" data-name="组 23852" transform="translate(-11608 -13229)">
    <path id="多边形_24" data-name="多边形 24" class="cls-1" d="M2.6.533a.5.5,0,0,1,.8,0L5.4,3.2A.5.5,0,0,1,5,4H1a.5.5,0,0,1-.4-.8Z" transform="translate(11612 13229) rotate(90)"/>
    <path id="多边形_24-2" data-name="多边形 24" class="cls-1" d="M2.6.533a.5.5,0,0,1,.8,0L5.4,3.2A.5.5,0,0,1,5,4H1a.5.5,0,0,1-.4-.8Z" transform="translate(11624 13229) rotate(90)"/>
    <path id="多边形_24-3" data-name="多边形 24" class="cls-1" d="M2.6.533a.5.5,0,0,1,.8,0L5.4,3.2A.5.5,0,0,1,5,4H1a.5.5,0,0,1-.4-.8Z" transform="translate(11636 13229) rotate(90)"/>
    <path id="多边形_24-4" data-name="多边形 24" class="cls-1" d="M2.6.533a.5.5,0,0,1,.8,0L5.4,3.2A.5.5,0,0,1,5,4H1a.5.5,0,0,1-.4-.8Z" transform="translate(11648 13229) rotate(90)"/>
    <path id="多边形_24-5" data-name="多边形 24" class="cls-1" d="M2.6.533a.5.5,0,0,1,.8,0L5.4,3.2A.5.5,0,0,1,5,4H1a.5.5,0,0,1-.4-.8Z" transform="translate(11660 13229) rotate(90)"/>
    <path id="多边形_24-6" data-name="多边形 24" class="cls-1" d="M2.6.533a.5.5,0,0,1,.8,0L5.4,3.2A.5.5,0,0,1,5,4H1a.5.5,0,0,1-.4-.8Z" transform="translate(11672 13229) rotate(90)"/>
    <path id="多边形_24-7" data-name="多边形 24" class="cls-1" d="M2.6.533a.5.5,0,0,1,.8,0L5.4,3.2A.5.5,0,0,1,5,4H1a.5.5,0,0,1-.4-.8Z" transform="translate(11684 13229) rotate(90)"/>
    <path id="多边形_24-8" data-name="多边形 24" class="cls-1" d="M2.6.533a.5.5,0,0,1,.8,0L5.4,3.2A.5.5,0,0,1,5,4H1a.5.5,0,0,1-.4-.8Z" transform="translate(11696 13229) rotate(90)"/>
    <path id="多边形_24-9" data-name="多边形 24" class="cls-1" d="M2.6.533a.5.5,0,0,1,.8,0L5.4,3.2A.5.5,0,0,1,5,4H1a.5.5,0,0,1-.4-.8Z" transform="translate(11708 13229) rotate(90)"/>
    <path id="多边形_24-10" data-name="多边形 24" class="cls-1" d="M2.6.533a.5.5,0,0,1,.8,0L5.4,3.2A.5.5,0,0,1,5,4H1a.5.5,0,0,1-.4-.8Z" transform="translate(11720 13229) rotate(90)"/>
    <path id="多边形_24-11" data-name="多边形 24" class="cls-1" d="M2.6.533a.5.5,0,0,1,.8,0L5.4,3.2A.5.5,0,0,1,5,4H1a.5.5,0,0,1-.4-.8Z" transform="translate(11732 13229) rotate(90)"/>
  </g>
</svg>
