<svg xmlns="http://www.w3.org/2000/svg" width="28" height="28" viewBox="0 0 28 28">
  <defs>
    <style>
      .cls-1 {
        fill: none;
      }

      .cls-2 {
        fill: #fff;
      }
    </style>
  </defs>
  <g id="组_23205" data-name="组 23205" transform="translate(-17 -109)">
    <rect id="矩形_295" data-name="矩形 295" class="cls-1" width="28" height="28" transform="translate(17 109)"/>
    <path id="路径_19393" data-name="路径 19393" class="cls-2" d="M1030.409,323.979h-13.658a1.155,1.155,0,0,0-1.155,1.155v13.658a1.155,1.155,0,0,0,1.155,1.155h13.658a1.154,1.154,0,0,0,1.154-1.155V325.134A1.155,1.155,0,0,0,1030.409,323.979Zm-7.921,11.73a1,1,0,0,1-2,0v-3.366a1,1,0,0,1,2,0Zm4.427,0a1,1,0,0,1-2,0v-6.147a1,1,0,0,1,2,0Z" transform="translate(-992.58 -208.963)"/>
  </g>
</svg>
