<svg xmlns="http://www.w3.org/2000/svg" width="28" height="28" viewBox="0 0 28 28">
  <defs>
    <style>
      .cls-1 {
        fill: none;
      }

      .cls-2 {
        fill: #fff;
      }
    </style>
  </defs>
  <g id="组_23205" data-name="组 23205" transform="translate(-18 -109)">
    <rect id="矩形_295" data-name="矩形 295" class="cls-1" width="28" height="28" transform="translate(18 109)"/>
    <g id="组_23979" data-name="组 23979" transform="translate(-890.973 -209.923)">
      <path id="路径_19382" data-name="路径 19382" class="cls-2" d="M923.1,326.923a1,1,0,0,0,1-1v-2a1,1,0,0,0-2,0v2A1,1,0,0,0,923.1,326.923Z"/>
      <path id="路径_19383" data-name="路径 19383" class="cls-2" d="M929.167,328.9a.993.993,0,0,0,.707-.293l1.414-1.414a1,1,0,1,0-1.414-1.414L928.46,327.2a1,1,0,0,0,.707,1.707Z"/>
      <path id="路径_19384" data-name="路径 19384" class="cls-2" d="M916.564,328.609a1,1,0,0,0,1.414-1.414l-1.415-1.414a1,1,0,1,0-1.414,1.414Z"/>
      <g id="组_23978" data-name="组 23978">
        <path id="路径_19385" data-name="路径 19385" class="cls-2" d="M923.113,336.872a.317.317,0,1,0,.317.316A.318.318,0,0,0,923.113,336.872Z"/>
        <path id="路径_19386" data-name="路径 19386" class="cls-2" d="M931.252,341.274h-1v-6.221a7.151,7.151,0,1,0-14.3,0v6.221h-.98a1,1,0,0,0,0,2h16.279a1,1,0,0,0,0-2Zm-8.139-2.4a1.683,1.683,0,1,1,1.682-1.684A1.685,1.685,0,0,1,923.113,338.872Z"/>
      </g>
    </g>
  </g>
</svg>
