<svg xmlns="http://www.w3.org/2000/svg" width="28" height="28" viewBox="0 0 28 28">
  <defs>
    <style>
      .cls-1 {
        fill: none;
      }

      .cls-2 {
        fill: #fff;
      }
    </style>
  </defs>
  <g id="组_23205" data-name="组 23205" transform="translate(-17 -109)">
    <rect id="矩形_295" data-name="矩形 295" class="cls-1" width="28" height="28" transform="translate(17 109)"/>
    <g id="组_23983" data-name="组 23983" transform="translate(-1018.574 -209.747)">
      <path id="路径_19394" data-name="路径 19394" class="cls-2" d="M1048.9,331.646a.348.348,0,1,0,.348.348A.348.348,0,0,0,1048.9,331.646Z" transform="translate(0.678 0.753)"/>
      <path id="路径_19395" data-name="路径 19395" class="cls-2" d="M1056.355,327.367l-5.512-3.183a2.537,2.537,0,0,0-2.537,0l-5.512,3.183a2.536,2.536,0,0,0-1.269,2.2v6.367a2.536,2.536,0,0,0,1.269,2.2l5.512,3.183a2.537,2.537,0,0,0,2.537,0l5.512-3.183a2.536,2.536,0,0,0,1.269-2.2v-6.367A2.536,2.536,0,0,0,1056.355,327.367Zm-6.781,7.225a1.845,1.845,0,1,1,1.845-1.845A1.848,1.848,0,0,1,1049.574,334.592Z" transform="translate(0)"/>
    </g>
  </g>
</svg>
