<svg xmlns="http://www.w3.org/2000/svg" width="28" height="28" viewBox="0 0 28 28">
  <defs>
    <style>
      .cls-1 {
        fill: none;
      }

      .cls-2 {
        fill: #fff;
      }
    </style>
  </defs>
  <g id="组_23205" data-name="组 23205" transform="translate(-17 -109)">
    <rect id="矩形_295" data-name="矩形 295" class="cls-1" width="28" height="28" transform="translate(17 109)"/>
    <g id="组_23981" data-name="组 23981" transform="translate(-939.798 -211.22)">
      <path id="路径_19389" data-name="路径 19389" class="cls-2" d="M966.81,339.933h-2.957a1.025,1.025,0,0,0,0,2.05h2.957a1.025,1.025,0,0,0,0-2.05Z" transform="translate(0.097 0.968)"/>
      <path id="路径_19390" data-name="路径 19390" class="cls-2" d="M976.312,339.933h-2.956a1.025,1.025,0,0,0,0,2.05h2.956a1.025,1.025,0,0,0,0-2.05Z" transform="translate(0.734 0.968)"/>
      <path id="路径_19391" data-name="路径 19391" class="cls-2" d="M978.482,330.277h-1.213a.979.979,0,0,0-.028-.131l-.872-3.362a1.729,1.729,0,0,0-1.674-1.3h-7.6a1.723,1.723,0,0,0-1.648,1.206l-1.069,3.363a1.4,1.4,0,0,0-.05.22h-1.215a1.73,1.73,0,0,0-1.729,1.73v6.21a1.73,1.73,0,0,0,1.729,1.729h15.369a1.731,1.731,0,0,0,1.73-1.729v-6.21A1.731,1.731,0,0,0,978.482,330.277Zm-6.207,5.859h-2.956a1.025,1.025,0,0,1,0-2.05h2.956a1.025,1.025,0,0,1,0,2.05Zm-5.81-5.876.865-2.722h7.117l.706,2.722Z" transform="translate(0)"/>
    </g>
  </g>
</svg>
