<svg xmlns="http://www.w3.org/2000/svg" width="28" height="28" viewBox="0 0 28 28">
  <defs>
    <style>
      .cls-1 {
        fill: none;
      }

      .cls-2 {
        fill: #fff;
      }
    </style>
  </defs>
  <g id="组_23971" data-name="组 23971" transform="translate(-17 -109)">
    <rect id="矩形_295" data-name="矩形 295" class="cls-1" width="28" height="28" transform="translate(17 109)"/>
    <path id="路径_19373" data-name="路径 19373" class="cls-2" d="M783.8,313.173l-6.792-4.714a.618.618,0,0,0-.7,0l-6.792,4.714a.619.619,0,0,0-.266.508v9.566a.6.6,0,0,0,.589.61h13.641a.6.6,0,0,0,.589-.61v-9.566A.619.619,0,0,0,783.8,313.173Zm-6.321,6.352a.823.823,0,1,1-1.647,0V318.49a.823.823,0,0,1,1.647,0Z" transform="translate(-745.656 -193.102)"/>
  </g>
</svg>
